<?xml version="1.0" encoding="UTF-8" standalone="no"?>
<!-- Created with Inkscape (http://www.inkscape.org/) -->

<svg
   xmlns:dc="http://purl.org/dc/elements/1.1/"
   xmlns:cc="http://creativecommons.org/ns#"
   xmlns:rdf="http://www.w3.org/1999/02/22-rdf-syntax-ns#"
   xmlns:svg="http://www.w3.org/2000/svg"
   xmlns="http://www.w3.org/2000/svg"
   xmlns:sodipodi="http://sodipodi.sourceforge.net/DTD/sodipodi-0.dtd"
   xmlns:inkscape="http://www.inkscape.org/namespaces/inkscape"
   inkscape:version="0.47pre4 r22446"
   version="1.1"
   id="svg2"
   height="48"
   width="48"
   sodipodi:docname="lyq-icon.svg"
   inkscape:export-filename="lyq-icon-24x24.png"
   inkscape:export-xdpi="45"
   inkscape:export-ydpi="45">
  <sodipodi:namedview
     id="base"
     pagecolor="#ffffff"
     bordercolor="#666666"
     borderopacity="1.0"
     inkscape:pageopacity="0.0"
     inkscape:pageshadow="2"
     inkscape:zoom="3.959798"
     inkscape:cx="62.409196"
     inkscape:cy="-6.8981306"
     inkscape:document-units="px"
     inkscape:current-layer="layer1"
     showgrid="true"
     showguides="true"
     inkscape:guide-bbox="true"
     inkscape:window-width="1308"
     inkscape:window-height="826"
     inkscape:window-x="35"
     inkscape:window-y="27"
     inkscape:window-maximized="0"
     inkscape:snap-to-guides="false"
     inkscape:snap-grids="false">
    <inkscape:grid
       type="xygrid"
       id="grid5477"
       empspacing="5"
       visible="true"
       enabled="true"
       snapvisiblegridlinesonly="true" />
  </sodipodi:namedview>
  <defs
     id="defs4">
    <inkscape:path-effect
       effect="knot"
       id="path-effect5513"
       is_visible="true"
       interruption_width="3"
       prop_to_stroke_width="true"
       add_stroke_width="true"
       add_other_stroke_width="true"
       switcher_size="15"
       crossing_points_vector="" />
    <linearGradient
       id="linearGradient3759">
      <stop
         style="stop-color:#40a4b2;stop-opacity:1;"
         offset="0"
         id="stop3761" />
      <stop
         style="stop-color:#8dcdd6;stop-opacity:1;"
         offset="1"
         id="stop3763" />
    </linearGradient>
    <inkscape:perspective
       sodipodi:type="inkscape:persp3d"
       inkscape:vp_x="0 : 526.18109 : 1"
       inkscape:vp_y="0 : 1000 : 0"
       inkscape:vp_z="744.09448 : 526.18109 : 1"
       inkscape:persp3d-origin="372.04724 : 350.78739 : 1"
       id="perspective10" />
    <inkscape:perspective
       id="perspective3725"
       inkscape:persp3d-origin="0.5 : 0.33333333 : 1"
       inkscape:vp_z="1 : 0.5 : 1"
       inkscape:vp_y="0 : 1000 : 0"
       inkscape:vp_x="0 : 0.5 : 1"
       sodipodi:type="inkscape:persp3d" />
  </defs>
  <metadata
     id="metadata7">
    <rdf:RDF>
      <cc:Work
         rdf:about="">
        <dc:format>image/svg+xml</dc:format>
        <dc:type
           rdf:resource="http://purl.org/dc/dcmitype/StillImage" />
        <dc:title></dc:title>
      </cc:Work>
    </rdf:RDF>
  </metadata>
  <g
     inkscape:label="Layer 1"
     inkscape:groupmode="layer"
     id="layer1"
     transform="translate(0,-1004.3622)">
    <rect
       ry="5.6745405"
       y="1005.3622"
       x="0.97417724"
       height="46"
       width="46.086452"
       id="rect3756"
       style="fill:#232323;fill-opacity:1;stroke:none" />
    <g
       id="g3650"
       transform="matrix(0.20389525,0,0,0.20389525,-4.660524,914.54188)">
      <g
         transform="matrix(1,0,0,0.43263701,0,321.84763)"
         id="text2816"
         style="font-size:137.27990723px;font-style:normal;font-variant:normal;font-weight:bold;font-stretch:normal;text-align:start;line-height:125%;writing-mode:lr-tb;text-anchor:start;fill:#000000;fill-opacity:1;stroke:none;font-family:Century Schoolbook L;-inkscape-font-specification:Century Schoolbook L Medium">
        <path
           id="path2821"
           style="fill:#c90000;fill-opacity:1"
           d="m 81.520427,464.03485 c -13.316137,0 -24.573112,3.84385 -33.496297,11.66879 -11.531501,9.88415 -18.395508,25.3968 -18.395508,41.45854 0,29.10331 21.415696,50.10716 51.205406,50.10716 14.002536,0 24.847672,-3.432 34.045412,-10.70783 11.80606,-9.4723 18.39551,-23.47488 18.39551,-39.53661 0,-15.92446 -7.00128,-31.57439 -18.39551,-41.32126 -9.19774,-7.96222 -19.905595,-11.66879 -33.359013,-11.66879 m 0.13728,7.13856 c 7.413108,0 13.178875,3.56928 17.159989,10.57055 4.530234,8.23679 7.001274,20.592 7.001274,35.41822 0,27.86779 -8.511369,42.96861 -24.161263,42.96861 -7.962227,0 -13.727994,-3.43201 -17.571828,-10.57056 -4.530232,-8.51134 -7.001275,-20.592 -7.001275,-35.00637 0,-14.82622 2.333763,-25.80863 7.001275,-33.63358 3.981113,-6.72671 9.472322,-9.74687 17.571828,-9.74687" />
        <path
           id="path2823"
           style="fill:#c2c200;fill-opacity:1;stroke:none"
           d="m 200.52567,464.03485 c -13.31613,0 -24.57311,3.84385 -33.49629,11.66879 -11.5315,9.88415 -18.39551,25.3968 -18.39551,41.45854 0,29.10331 21.41569,50.10716 51.2054,50.10716 14.00254,0 24.84768,-3.432 34.04542,-10.70783 11.80606,-9.4723 18.39551,-23.47488 18.39551,-39.53661 0,-15.92446 -7.00129,-31.57439 -18.39551,-41.32126 -9.19774,-7.96222 -19.9056,-11.66879 -33.35902,-11.66879 m 0.13728,7.13856 c 7.41311,0 13.17888,3.56928 17.15999,10.57055 4.53023,8.23679 7.00128,20.592 7.00128,35.41822 0,27.86779 -8.51137,42.96861 -24.16127,42.96861 -7.96222,0 -13.72799,-3.43201 -17.57183,-10.57056 -4.53023,-8.51134 -7.00127,-20.592 -7.00127,-35.00637 0,-14.82622 2.33376,-25.80863 7.00127,-33.63358 3.98112,-6.72671 9.47233,-9.74687 17.57183,-9.74687" />
      </g>
      <path
         sodipodi:nodetypes="csssc"
         id="path3615"
         d="m 92.455787,546.57251 c 0,3.01124 -4.882182,5.45233 -10.904665,5.45233 -6.022476,0 -10.904665,-2.44109 -10.904665,-5.45233 0,-3.01124 4.882189,-5.77266 10.904665,-5.77266 6.022483,0 10.904665,2.76142 10.904665,5.77266 z"
         style="fill:#ff3434;fill-opacity:1;stroke:none" />
      <path
         style="fill:#ff3434;fill-opacity:1;stroke:none"
         d="m 211.14871,546.57251 c 0,3.01124 -4.88218,5.45233 -10.90467,5.45233 -6.02247,0 -10.90466,-2.44109 -10.90466,-5.45233 0,-3.01124 4.88219,-5.55371 10.90466,-5.55371 6.02249,0 10.90467,2.54247 10.90467,5.55371 z"
         id="path3633"
         sodipodi:nodetypes="csssc" />
    </g>
    <path
       style="fill:#04d2cf;fill-opacity:1;stroke:#28636a;stroke-width:1.0037936;stroke-opacity:1"
       d="m 6.6718579,1005.377 c -3.1532762,0 -5.69457129,2.5132 -5.69457129,5.6688 l 0,34.7927 c 0,3.1556 2.54129509,5.6989 5.69457129,5.6989 l 34.8867411,0 c 3.153277,0 5.664601,-2.5433 5.664601,-5.6989 l 0,-34.7927 c 0,-3.1556 -2.511324,-5.6688 -5.664601,-5.6688 l -34.8867411,0 z m 22.6883711,6.5086 c 0.243132,-0.01 0.359657,0.096 0.359657,0.3299 0,0.3988 0.485928,0.5283 1.078971,0.3 1.503463,-0.5771 1.3546,0.9649 -0.179829,1.8596 -1.132727,0.6608 -1.106981,0.7181 0.299715,0.7498 2.066031,0.029 5.589787,3.0439 6.7136,5.7588 1.047994,2.532 0.894062,2.4937 3.626543,1.0798 2.51431,-1.301 2.784379,-0.3077 0.509513,1.8896 l -1.618456,1.5597 2.517599,-0.4499 c 2.370774,-0.4173 2.4337,-0.3744 1.078972,0.6598 -0.790728,0.6037 -2.146165,1.2544 -2.997143,1.4698 -1.117566,0.2806 -1.777293,1.3127 -2.367742,3.6592 -1.14872,4.5655 -5.72234,9.1885 -10.819686,10.9477 -8.54862,2.9503 -15.828349,2.3323 -21.7292851,-1.8296 -3.6872049,-2.6003 -4.6217409,-4.528 -1.3786857,-2.8494 4.0079951,2.0741 9.8220718,0.867 11.5689708,-2.3996 0.644127,-1.2041 0.261357,-1.5659 -3.266886,-3.0293 -4.0577312,-1.6831 -6.5574236,-4.2291 -4.1660277,-4.2291 0.9776583,0 1.0339518,-0.1944 0.2997142,-1.0798 -0.7576068,-0.9119 -0.6128346,-1.0798 1.0190285,-1.0798 1.101979,0 1.752548,-0.3085 1.498571,-0.7198 -0.24435,-0.3956 -0.136548,-0.7199 0.269744,-0.7199 0.406291,0 0.557249,-0.4863 0.329685,-1.0797 -0.603914,-1.5746 1.075297,-1.3186 4.585628,0.6898 l 3.057086,1.7397 0.479543,-1.9197 c 0.716556,-2.9811 3.529918,-8.2541 5.215028,-9.7779 0.833456,-0.7552 1.498572,-1.143 1.498572,-0.8698 0,0.2733 0.647903,0.1535 1.438628,-0.2699 0.465148,-0.2499 0.83584,-0.3818 1.078972,-0.39 z"
       id="rect3746" />
    <g
       id="g3620"
       inkscape:export-filename="/home/fukuchi/work/lyq/img/lyq-icon-open.png"
       inkscape:export-xdpi="36.256321"
       inkscape:export-ydpi="36.256321">
      <rect
         ry="5.6745405"
         y="1005.3622"
         x="98.453896"
         height="46"
         width="46.086452"
         id="rect2826"
         style="fill:#232323;fill-opacity:1;stroke:none" />
      <g
         style="font-size:137.27990722999999207px;font-style:normal;font-variant:normal;font-weight:bold;font-stretch:normal;text-align:start;line-height:125%;writing-mode:lr-tb;text-anchor:start;fill:#ff2400;fill-opacity:1;stroke:none;font-family:Century Schoolbook L;-inkscape-font-specification:Century Schoolbook L Medium"
         id="g2830"
         transform="matrix(0.39896844,0,0,0.17260851,91.113064,942.70407)">
        <path
           d="m 81.520427,464.03485 c -13.316137,0 -24.573112,3.84385 -33.496297,11.66879 -11.531501,9.88415 -18.395508,25.3968 -18.395508,41.45854 0,29.10331 21.415696,50.10716 51.205406,50.10716 14.002536,0 24.847672,-3.432 34.045412,-10.70783 11.80606,-9.4723 18.39551,-23.47488 18.39551,-39.53661 0,-15.92446 -7.00128,-31.57439 -18.39551,-41.32126 -9.19774,-7.96222 -19.905595,-11.66879 -33.359013,-11.66879 m 0.13728,7.13856 c 7.413108,0 13.178875,3.56928 17.159989,10.57055 4.530234,8.23679 7.001274,20.592 7.001274,35.41822 0,27.86779 -8.511369,42.96861 -24.161263,42.96861 -7.962227,0 -13.727994,-3.43201 -17.571828,-10.57056 -4.530232,-8.51134 -7.001275,-20.592 -7.001275,-35.00637 0,-14.82622 2.333763,-25.80863 7.001275,-33.63358 3.981113,-6.72671 9.472322,-9.74687 17.571828,-9.74687"
           style="fill:#ff2400;fill-opacity:1"
           id="path2832" />
      </g>
      <path
         style="fill:#ff3434;fill-opacity:1;stroke:none"
         d="m 128,1032.3622 c 0,1.2014 -1.94783,2.1753 -4.35061,2.1753 -2.40278,0 -4.35062,-0.9739 -4.35062,-2.1753 0,-1.2014 1.94784,-2.3031 4.35062,-2.3031 2.40278,0 4.35061,1.1017 4.35061,2.3031 z"
         id="path2836"
         sodipodi:nodetypes="csssc" />
      <path
         style="fill:#05f6f2;fill-opacity:1;stroke:#28636a;stroke-width:1.0037936;stroke-opacity:1"
         d="m 104,1005.3622 c -3.15328,0 -5.694573,2.5132 -5.694573,5.6688 l 0,34.7927 c 0,3.1556 2.541293,5.6989 5.694573,5.6989 l 34.88674,0 c 3.15328,0 5.6646,-2.5433 5.6646,-5.6989 l 0,-34.7927 c 0,-3.1556 -2.51132,-5.6688 -5.6646,-5.6688 l -34.88674,0 z m 22.68837,6.5086 c 0.24313,-0.01 0.35966,0.096 0.35966,0.3299 0,0.3988 0.48592,0.5283 1.07897,0.3 1.50346,-0.5771 1.3546,0.9649 -0.17983,1.8596 -1.13273,0.6608 -1.10698,0.7181 0.29971,0.7498 2.06603,0.029 5.58979,3.0439 6.7136,5.7588 1.048,2.532 0.89407,2.4937 3.62655,1.0798 2.51431,-1.301 2.78438,-0.3077 0.50951,1.8896 l -1.61846,1.5597 2.5176,-0.4499 c 2.37078,-0.4173 2.4337,-0.3744 1.07897,0.6598 -0.79072,0.6037 -2.14616,1.2544 -2.99714,1.4698 -1.11756,0.2806 -1.77729,1.3127 -2.36774,3.6592 -1.14872,4.5655 -5.72234,9.1885 -10.81969,10.9477 -8.54862,2.9503 -15.82835,2.3323 -21.72928,-1.8296 -3.6872,-2.6003 -4.621743,-4.528 -1.37869,-2.8494 4.008,2.0741 9.82207,0.867 11.56897,-2.3996 0.64413,-1.2041 0.26136,-1.5659 -3.26688,-3.0293 -4.05773,-1.6831 -6.55743,-4.2291 -4.16603,-4.2291 0.97766,0 1.03395,-0.1944 0.29971,-1.0798 -0.7576,-0.9119 -0.61283,-1.0798 1.01903,-1.0798 1.10198,0 1.75255,-0.3085 1.49857,-0.7198 -0.24435,-0.3956 -0.13654,-0.7199 0.26975,-0.7199 0.40629,0 0.55725,-0.4863 0.32968,-1.0797 -0.60391,-1.5746 1.0753,-1.3186 4.58563,0.6898 l 3.05709,1.7397 0.47954,-1.9197 c 0.71656,-2.9811 3.52992,-8.2541 5.21503,-9.7779 0.83345,-0.7552 1.49857,-1.143 1.49857,-0.8698 0,0.2733 0.6479,0.1535 1.43863,-0.2699 0.46515,-0.2499 0.83584,-0.3818 1.07897,-0.39 z"
         id="path2840" />
    </g>
    <g
       id="g2837"
       transform="matrix(0.20389525,0,0,0.20389525,104.72928,971.84792)" />
    <g
       id="g3640"
       inkscape:export-filename="/home/fukuchi/work/lyq/img/lyq-icon-close.png"
       inkscape:export-xdpi="36.190697"
       inkscape:export-ydpi="36.190697">
      <rect
         style="fill:#232323;fill-opacity:1;stroke:none"
         id="rect2835"
         width="46.086452"
         height="46"
         x="98.453896"
         y="1057.6836"
         ry="5.6745405" />
      <g
         style="font-size:137.27990722999999207px;font-style:normal;font-variant:normal;font-weight:bold;font-stretch:normal;text-align:start;line-height:125%;writing-mode:lr-tb;text-anchor:start;fill:#000000;fill-opacity:1;stroke:none;font-family:Century Schoolbook L;-inkscape-font-specification:Century Schoolbook L Medium"
         id="g2839"
         transform="matrix(0.39896844,0,0,0.17260851,91.113064,995.0255)">
        <path
           d="m 81.520427,464.03485 c -13.316137,0 -24.573112,3.84385 -33.496297,11.66879 -11.531501,9.88415 -18.395508,25.3968 -18.395508,41.45854 0,29.10331 21.415696,50.10716 51.205406,50.10716 14.002536,0 24.847672,-3.432 34.045412,-10.70783 11.80606,-9.4723 18.39551,-23.47488 18.39551,-39.53661 0,-15.92446 -7.00128,-31.57439 -18.39551,-41.32126 -9.19774,-7.96222 -19.905595,-11.66879 -33.359013,-11.66879 m 0.13728,7.13856 c 7.413108,0 13.178875,3.56928 17.159989,10.57055 4.530234,8.23679 7.001274,20.592 7.001274,35.41822 0,27.86779 -8.511369,42.96861 -24.161263,42.96861 -7.962227,0 -13.727994,-3.43201 -17.571828,-10.57056 -4.530232,-8.51134 -7.001275,-20.592 -7.001275,-35.00637 0,-14.82622 2.333763,-25.80863 7.001275,-33.63358 3.981113,-6.72671 9.472322,-9.74687 17.571828,-9.74687"
           style="fill:#3a0000;fill-opacity:1"
           id="path2841" />
      </g>
      <path
         id="path2845"
         d="m 104,1057.6836 c -3.15328,0 -5.694573,2.5132 -5.694573,5.6688 l 0,34.7927 c 0,3.1556 2.541293,5.6989 5.694573,5.6989 l 34.88674,0 c 3.15328,0 5.6646,-2.5433 5.6646,-5.6989 l 0,-34.7927 c 0,-3.1556 -2.51132,-5.6688 -5.6646,-5.6688 l -34.88674,0 z m 22.68837,6.5086 c 0.24313,-0.01 0.35966,0.096 0.35966,0.3299 0,0.3988 0.48592,0.5283 1.07897,0.3 1.50346,-0.5771 1.3546,0.9649 -0.17983,1.8596 -1.13273,0.6608 -1.10698,0.7181 0.29971,0.7498 2.06603,0.029 5.58979,3.0439 6.7136,5.7588 1.048,2.532 0.89407,2.4937 3.62655,1.0798 2.51431,-1.301 2.78438,-0.3077 0.50951,1.8896 l -1.61846,1.5597 2.5176,-0.4499 c 2.37078,-0.4173 2.4337,-0.3744 1.07897,0.6598 -0.79072,0.6037 -2.14616,1.2544 -2.99714,1.4698 -1.11756,0.2806 -1.77729,1.3127 -2.36774,3.6592 -1.14872,4.5655 -5.72234,9.1885 -10.81969,10.9477 -8.54862,2.9503 -15.82835,2.3323 -21.72928,-1.8296 -3.6872,-2.6003 -4.621743,-4.528 -1.37869,-2.8494 4.008,2.0741 9.82207,0.867 11.56897,-2.3996 0.64413,-1.2041 0.26136,-1.5659 -3.26688,-3.0293 -4.05773,-1.6831 -6.55743,-4.2291 -4.16603,-4.2291 0.97766,0 1.03395,-0.1944 0.29971,-1.0798 -0.7576,-0.9119 -0.61283,-1.0798 1.01903,-1.0798 1.10198,0 1.75255,-0.3085 1.49857,-0.7198 -0.24435,-0.3956 -0.13654,-0.7199 0.26975,-0.7199 0.40629,0 0.55725,-0.4863 0.32968,-1.0797 -0.60391,-1.5746 1.0753,-1.3186 4.58563,0.6898 l 3.05709,1.7397 0.47954,-1.9197 c 0.71656,-2.9811 3.52992,-8.2541 5.21503,-9.7779 0.83345,-0.7552 1.49857,-1.143 1.49857,-0.8698 0,0.2733 0.6479,0.1535 1.43863,-0.2699 0.46515,-0.2499 0.83584,-0.3818 1.07897,-0.39 z"
         style="fill:#038e8c;fill-opacity:1;stroke:#28636a;stroke-width:1.0037936;stroke-opacity:1" />
    </g>
  </g>
</svg>
